<?xml version="1.0" encoding="UTF-8" standalone="no"?>
<!-- Created with Inkscape (http://www.inkscape.org/) -->

<svg
   xmlns:dc="http://purl.org/dc/elements/1.1/"
   xmlns:cc="http://creativecommons.org/ns#"
   xmlns:rdf="http://www.w3.org/1999/02/22-rdf-syntax-ns#"
   xmlns:svg="http://www.w3.org/2000/svg"
   xmlns="http://www.w3.org/2000/svg"
   xmlns:sodipodi="http://sodipodi.sourceforge.net/DTD/sodipodi-0.dtd"
   xmlns:inkscape="http://www.inkscape.org/namespaces/inkscape"
   id="svg2"
   version="1.1"
   inkscape:version="0.48.2 r9819"
   width="581.05"
   height="510.275"
   xml:space="preserve"
   sodipodi:docname="octocat_by_rstovall-d3k6a7n.eps"><metadata
     id="metadata8"><rdf:RDF><cc:Work
         rdf:about=""><dc:format>image/svg+xml</dc:format><dc:type
           rdf:resource="http://purl.org/dc/dcmitype/StillImage" /><dc:title></dc:title></cc:Work></rdf:RDF></metadata><defs
     id="defs6" /><sodipodi:namedview
     pagecolor="#ffffff"
     bordercolor="#666666"
     borderopacity="1"
     objecttolerance="10"
     gridtolerance="10"
     guidetolerance="10"
     inkscape:pageopacity="0"
     inkscape:pageshadow="2"
     inkscape:window-width="640"
     inkscape:window-height="480"
     id="namedview4"
     showgrid="false"
     inkscape:zoom="0.46249572"
     inkscape:cx="290.52499"
     inkscape:cy="255.1375"
     inkscape:window-x="0"
     inkscape:window-y="26"
     inkscape:window-maximized="0"
     inkscape:current-layer="g10" /><g
     id="g10"
     inkscape:groupmode="layer"
     inkscape:label="ink_ext_XXXXXX"
     transform="matrix(1.25,0,0,-1.25,0,510.275)"><g
       id="g12"
       transform="scale(0.1,0.1)"><path
         d="M 3640.01,452.5 C 3640.01,202.59 3065.37,0 2344.18,0 1622.99,0 1038.34,202.59 1038.34,452.5 c 0,249.91 584.65,452.5 1305.84,452.5 721.19,0 1295.83,-202.59 1295.83,-452.5"
         style="fill:#87d8f0;fill-opacity:1;fill-rule:nonzero;stroke:none"
         id="path14" /><path
         d="m 2582.51,7.51953 c 0,86.87887 0,174.76947 0,238.55047 0,153.34 107.5,200 107.5,256.672 0,97.5 -196.21,-9.262 -256.67,-70 C 2341.26,340.23 2351.67,304 2353.9,148.961 c 0.57,-40.121 0.74,-93.0313 0.68,-148.961 77.9,0.210938 154.05,2.78125 227.93,7.51953"
         style="fill:#6aaae1;fill-opacity:1;fill-rule:nonzero;stroke:none"
         id="path16" /><path
         d="m 1983.72,17.4219 c -0.5,131.6871 -1.21,309.3401 -1.21,379.0581 0,133.75 -190,210 -281.25,210 -46.24,0 -103.75,-2.39 -103.75,-26.82 0,-61.93 173.75,-98.18 173.75,-226.93 0,-70.91 -1.01,-212.718 -1.75,-306.6792 68.27,-11.6211 139.87,-21.2422 214.21,-28.6289"
         style="fill:#6aaae1;fill-opacity:1;fill-rule:nonzero;stroke:none"
         id="path18" /><path
         d="m 2874.18,357.742 c 1.66,121.668 179.99,180.008 173.33,219.168 -6.67,39.16 -149.27,32.77 -215.86,9.559 C 2642.78,520.641 2661.67,363.57 2661.67,363.57 L 2656.6,13.0703 c 76.53,6.5508 150.31,15.4414 220.67,26.4609 -0.89,213.5278 -3.96,254.6168 -3.09,318.2108"
         style="fill:#6aaae1;fill-opacity:1;fill-rule:nonzero;stroke:none"
         id="path20" /><path
         d="m 2257,358.961 c -75.74,167.519 -304.49,225.019 -304.49,148.769 0,-51.25 46.25,-35 77.5,-150 12.61,-46.41 19.44,-198.929 23.14,-346.48 78.23,-6.16797 159.13,-9.89062 242,-10.949219 C 2293.25,146.09 2284.2,298.398 2257,358.961"
         style="fill:#6aaae1;fill-opacity:1;fill-rule:nonzero;stroke:none"
         id="path22" /><path
         d="m 853.352,1609.16 c -80.532,0 -0.368,126.47 -0.008,183.33 1.379,-58.43 80.535,-183.33 0.008,-183.33"
         style="fill:#87d8f0;fill-opacity:1;fill-rule:nonzero;stroke:none"
         id="path24" /><path
         d="m 2836.71,3025 c 402.7,0 505,-285 505,-505 0,-299.9 -150.9,-517.3 -526.4,-573.49 -46.1,-6.91 -95.6,-11.41 -148.6,-13.31 -226.7,-8.2 -453.3,-7.09 -640,0.1 -27.1,1 -53.7,2.7 -79.8,5 -391.9,34.3 -670.2,211.51 -670.2,608.4 0,150.3 101.6,478.3 511.6,478.3 40.6,0 305.7,-25 561.7,-25 227.3,0 457.2,25 486.7,25"
         style="fill:#fab594;fill-opacity:1;fill-rule:nonzero;stroke:none"
         id="path26" /><path
         d="m 4636.11,2369.8 c 8.1,-1.6 13.5,-9.4 12,-17.5 -1.3,-7.2 -7.7,-12.3 -14.7,-12.3 -0.9,0 -1.9,0.1 -2.8,0.2 -204.5,37.8 -502.1,79.4 -1010.3,74.7 -8.9,-29.5 -18.9,-57.6 -29.8,-84.4 173,-5.8 648.1,-24.3 1035.5,-142.8 8,-2.4 12.4,-10.8 10,-18.8 -2,-6.4 -7.9,-10.6 -14.3,-10.6 -1.5,0 -3,0.2 -4.4,0.7 -392.8,120.1 -878.2,136.6 -1039.6,141.9 -125.2,-274.9 -367.5,-396.3 -748.2,-453.4 l -14.2,99.01 c 375.5,56.19 526.4,273.59 526.4,573.49 0,220 -102.3,505 -505,505 -29.5,0 -259.4,-25 -486.7,-25 -256,0 -521.1,25 -561.7,25 -410,0 -511.6,-328 -511.6,-478.3 0,-396.89 278.3,-574.1 670.2,-608.4 l -10.9,-109.5 c -465.9,47.2 -742.9,211.1 -887.2,473.1 -495.404,-11.9 -776.599,-82.2 -982.7006,-133.7 -15,-3.8 -29.6016,-7.4 -43.8008,-11 -1.1992,-0.3 -2.3984,-0.4 -3.5977,-0.4 -6.8007,0 -12.8984,4.6 -14.59762,11.4 -2.0039,8 2.9961,16.2 10.99222,18.2 14.207,3.5 28.8047,7.1 43.7031,10.9 205.5034,51.3 484.9024,121.2 974.4014,134.2 -13.5,27.1 -25.7,55.1 -36.601,84 -190.398,1.6 -777.097,-25.4 -977.9996,-75.1 -1.1992,-0.3 -2.3985,-0.4 -3.5977,-0.4 -6.6992,0 -12.90232,4.6 -14.601544,11.4 -1.898436,8 2.996094,16.2 11.000044,18.2 199.0978,49.2 771.5978,76.5 974.4018,76 -45.601,134.2 -65.8,287.9 -65.8,459.6 0,304.8 94.998,419.8 222.498,582.3 -97.5,347.5 35,585 35,585 0,0 205,42.5 592.5,-235 210,90 770,97.5 1035,20 162.5,107.5 460,260 580,217.3 32.5,-52.3 102.5,-204.8 42.5,-539.8 40.7,-73.5 252.5,-230 253.3,-672.5 -3.4,-163.2 -20.4,-301 -51.9,-417.5 505.3,4.2 802.5,-37.5 1007.2,-75.2"
         style="fill:#100f0d;fill-opacity:1;fill-rule:nonzero;stroke:none"
         id="path28" /><path
         d="m 2874.21,852.5 c 1.6,-121.699 180,-180 173.3,-219.199 -6.7,-39.102 -149.3,-32.801 -215.9,-9.5 -188.8,65.801 -169.9,222.898 -169.9,222.898 l -6.3,431.201 c 0,0 12.9,232.1 -72.9,232.1 0,-46.7 0,-538.891 0,-705.801 0,-153.398 107.5,-200 107.5,-256.699 0,-97.5 -196.2,9.199 -256.7,70 -92.1,92.5 -81.6,288.699 -79.4,443.8 2.1,149.81 -1.4,477.5 -1.4,477.5 l -62.5,-1.3 c 0,0 25.6,-715.801 -33,-846.199 -75.8,-167.5 -304.5,-225.102 -304.5,-148.801 0,51.301 56.3,35 87.5,150 26.6,97.801 17.5,827.5 17.5,827.5 0,0 -73.3,-43.3 -73.3,-180 0,-62.5 -1.7,-419.898 -1.7,-526.199 0,-133.801 -190,-210 -281.3,-210 -46.2,0 -103.7,2.308 -103.7,26.801 0,61.898 173.7,98.199 173.7,226.898 0,111.602 -2.4,398.7 -2.4,398.7 0,0 -87.6,-15 -212.6,-15 -315,0 -414.6,201 -462,313.5 -61.7,146.5 -141.698,215.3 -226.698,270.3 -52.203,33.8 -64.2,73.61 -3.801,85 278.799,52.5 350.099,-316.2 536.299,-375 132.9,-41.9 303.8,-23.8 388.8,31.2 11.2,112.6 92.4,210 160,261.3 -4.3,0.4 -8.6,0.8 -12.8,1.3 l 10.9,109.5 c 26.1,-2.3 52.7,-4 79.8,-5 186.7,-7.19 413.3,-8.3 640,-0.1 53,1.9 102.5,6.4 148.6,13.31 l 14.2,-99.01 c -46.6,-7 -95.4,-13.09 -146.2,-18.3 150.9,-95 194.2,-214.2 194.2,-536.7 0,-322.5 -4.3,-365.801 -3.3,-440"
         style="fill:#100f0d;fill-opacity:1;fill-rule:nonzero;stroke:none"
         id="path30" /><path
         d="m 1966.67,2522.5 c 0,176.27 -95.88,319.17 -214.16,319.17 -118.28,0 -214.17,-142.9 -214.17,-319.17 0,-176.27 95.89,-299.16 214.17,-299.16 118.28,0 214.16,122.89 214.16,299.16"
         style="fill:#ffffff;fill-opacity:1;fill-rule:nonzero;stroke:none"
         id="path32" /><path
         d="m 3124.17,2522.5 c 0,176.27 -95.88,319.17 -214.16,319.17 -118.28,0 -214.17,-142.9 -214.17,-319.17 0,-176.27 95.89,-299.16 214.17,-299.16 118.28,0 214.16,122.89 214.16,299.16"
         style="fill:#ffffff;fill-opacity:1;fill-rule:nonzero;stroke:none"
         id="path34" /><path
         d="m 2315.84,2031.66 c -76.54,0 -132.5,65.77 -132.5,100 0,8.28 6.72,15 15,15 8.29,0 15,-6.72 15,-15 0,-16.92 42.53,-70 102.5,-70 51.99,0 90.83,36.96 90.83,70 0,8.28 6.72,15 15,15 8.29,0 15,-6.72 15,-15 0,-47.29 -49.62,-100 -120.83,-100"
         style="fill:#b13335;fill-opacity:1;fill-rule:nonzero;stroke:none"
         id="path36" /><path
         d="m 2365.84,2255.83 c 0,-28.53 -23.13,-51.67 -51.67,-51.67 -28.53,0 -51.67,23.14 -51.67,51.67 0,28.54 23.14,51.67 51.67,51.67 28.54,0 51.67,-23.13 51.67,-51.67"
         style="fill:#b13335;fill-opacity:1;fill-rule:nonzero;stroke:none"
         id="path38" /><path
         d="m 1893.34,2522.5 c 0,114.14 -63.05,206.67 -140.83,206.67 -77.78,0 -140.84,-92.53 -140.84,-206.67 0,-114.13 63.06,-206.66 140.84,-206.66 77.78,0 140.83,92.53 140.83,206.66"
         style="fill:#b13335;fill-opacity:1;fill-rule:nonzero;stroke:none"
         id="path40" /><path
         d="m 3050.84,2522.5 c 0,114.14 -63.05,206.67 -140.83,206.67 -77.78,0 -140.84,-92.53 -140.84,-206.67 0,-114.13 63.06,-206.66 140.84,-206.66 77.78,0 140.83,92.53 140.83,206.66"
         style="fill:#b13335;fill-opacity:1;fill-rule:nonzero;stroke:none"
         id="path42" /><path
         d="m 988.762,1872.08 c 0,-12.42 -15.114,-22.5 -33.75,-22.5 -18.641,0 -33.75,10.08 -33.75,22.5 0,12.42 15.109,22.5 33.75,22.5 18.636,0 33.75,-10.08 33.75,-22.5"
         style="fill:#b9e6d0;fill-opacity:1;fill-rule:nonzero;stroke:none"
         id="path44" /><path
         d="m 1093.76,1814.99 c 0,-12.42 -15.11,-22.5 -33.75,-22.5 -18.64,0 -33.75,10.08 -33.75,22.5 0,12.42 15.11,22.5 33.75,22.5 18.64,0 33.75,-10.08 33.75,-22.5"
         style="fill:#b9e6d0;fill-opacity:1;fill-rule:nonzero;stroke:none"
         id="path46" /><path
         d="m 1157.92,1738.74 c 0,-12.42 -15.11,-22.5 -33.75,-22.5 -18.63,0 -33.75,10.08 -33.75,22.5 0,12.42 15.12,22.5 33.75,22.5 18.64,0 33.75,-10.08 33.75,-22.5"
         style="fill:#b9e6d0;fill-opacity:1;fill-rule:nonzero;stroke:none"
         id="path48" /><path
         d="m 1214.17,1652.49 c 0,-12.42 -15.11,-22.5 -33.75,-22.5 -18.63,0 -33.75,10.08 -33.75,22.5 0,12.42 15.12,22.5 33.75,22.5 18.64,0 33.75,-10.08 33.75,-22.5"
         style="fill:#b9e6d0;fill-opacity:1;fill-rule:nonzero;stroke:none"
         id="path50" /><path
         d="m 1278.34,1571.24 c 0,-12.42 -15.11,-22.5 -33.75,-22.5 -18.64,0 -33.75,10.08 -33.75,22.5 0,12.42 15.11,22.5 33.75,22.5 18.64,0 33.75,-10.08 33.75,-22.5"
         style="fill:#b9e6d0;fill-opacity:1;fill-rule:nonzero;stroke:none"
         id="path52" /><path
         d="m 1365.01,1502.07 c 0,-12.42 -15.11,-22.5 -33.75,-22.5 -18.64,0 -33.75,10.08 -33.75,22.5 0,12.42 15.11,22.5 33.75,22.5 18.64,0 33.75,-10.08 33.75,-22.5"
         style="fill:#b9e6d0;fill-opacity:1;fill-rule:nonzero;stroke:none"
         id="path54" /><path
         d="m 1486.26,1457.07 c 0,-12.42 -15.11,-22.5 -33.75,-22.5 -18.64,0 -33.75,10.08 -33.75,22.5 0,12.42 15.11,22.5 33.75,22.5 18.64,0 33.75,-10.08 33.75,-22.5"
         style="fill:#b9e6d0;fill-opacity:1;fill-rule:nonzero;stroke:none"
         id="path56" /><path
         d="m 1607.92,1457.07 c 0,-12.42 -15.11,-22.5 -33.75,-22.5 -18.63,0 -33.75,10.08 -33.75,22.5 0,12.42 15.12,22.5 33.75,22.5 18.64,0 33.75,-10.08 33.75,-22.5"
         style="fill:#b9e6d0;fill-opacity:1;fill-rule:nonzero;stroke:none"
         id="path58" /><path
         d="m 1730.01,1476.24 c 0,-12.42 -15.11,-22.5 -33.75,-22.5 -18.64,0 -33.75,10.08 -33.75,22.5 0,12.42 15.11,22.5 33.75,22.5 18.64,0 33.75,-10.08 33.75,-22.5"
         style="fill:#b9e6d0;fill-opacity:1;fill-rule:nonzero;stroke:none"
         id="path60" /></g></g></svg>